<?xml version="1.0" encoding="utf-8"?>
<!-- Generator: Adobe Illustrator 26.3.1, SVG Export Plug-In . SVG Version: 6.00 Build 0)  -->
<svg version="1.1" id="Layer_1" xmlns="http://www.w3.org/2000/svg" xmlns:xlink="http://www.w3.org/1999/xlink" x="0px" y="0px"
	 viewBox="0 0 253.3 153.6" style="enable-background:new 0 0 253.3 153.6;" xml:space="preserve">
<style type="text/css">
	.st0{fill:#939598;}
	.st1{fill:#F79421;}
	.st2{fill:#1E95D3;}
	.st3{fill:#6FB544;}
</style>
<path d="M164.7,133.2c-0.9-0.6-1.7-1.5-2.2-2.6l-26.3-58.7c-1.1-2.4-1.9-4.3-2.6-5.8c-1.1-2.2-1.1-2.8-1.1-3.2
	c0-1.1,0.4-1.9,1.3-2.4v-2.2h-21.6v2.2c0.4,0.2,0.6,0.6,0.9,0.9c0.2,0.4,0.4,0.9,0.4,1.5c0,0.6-0.2,1.5-0.9,2.8
	c-0.6,1.3-1.3,2.8-2.2,4.7l-25.9,58.5c-0.4,0.9-1.1,2.2-1.9,3.7c-0.9,1.5-2.4,2.2-4.1,2.4v1.9h24.8v-1.9c-2.8,0-4.1-1.1-4.1-2.8
	c0-0.9,0.4-2.4,1.5-4.5c0.9-1.7,1.9-3.9,2.8-6c12.3,4.7,26.1,5,38.4,0.4c1.1,2.2,1.9,4.1,2.6,5.6c0.9,1.7,1.3,3.2,1.3,4.3
	c0,1.1-0.4,1.9-1.1,2.4c-0.6,0.2-1.1,0.4-1.7,0.6v1.9h25.2v-1.9C166.8,134.1,165.5,133.6,164.7,133.2z M109,109.7L122.8,79l14,31.1
	C127.8,113.1,118.1,113.1,109,109.7z"/>
<path class="st0" d="M74.5,76.7c0-4.5,0.6-8.8,1.7-13.2l-14-6.3c-1.9,6-3,12.3-3,18.8c0,17.5,7.1,34.3,19.9,46.4l0.9-1.7l5.6-12.7
	C78.8,99.3,74.5,88.5,74.5,76.7z"/>
<path class="st1" d="M184.7,57.5l-14,6.3c1.1,4.1,1.7,8.4,1.7,12.9c0,11.9-4.3,22.9-11.4,31.3l5.8,12.7l0.9,1.7
	c12.7-12.1,19.9-28.9,19.9-46.4C187.5,69.8,186.5,63.5,184.7,57.5z"/>
<path class="st2" d="M65.2,49.7L79,56c7.3-15.5,22.4-26.5,40.1-28.1V12.6C96.1,13.9,74.9,28.3,65.2,49.7z"/>
<path class="st3" d="M181.7,49.7c-9.7-21.4-30.9-35.8-54.2-37.3v15.3c17.9,1.5,33,12.5,40.3,28.1L181.7,49.7z"/>
</svg>
