<?xml version="1.0" encoding="utf-8"?>
<!-- Generator: Adobe Illustrator 26.3.1, SVG Export Plug-In . SVG Version: 6.00 Build 0)  -->
<svg version="1.1" id="Layer_1" xmlns="http://www.w3.org/2000/svg" xmlns:xlink="http://www.w3.org/1999/xlink" x="0px" y="0px"
	 viewBox="0 0 287.6 105.1" style="enable-background:new 0 0 287.6 105.1;" xml:space="preserve">
<style type="text/css">
	.st0{fill:#229529;}
	.st1{fill:#969696;}
	.st2{fill:#FFC000;}
	.st3{fill:#0080B7;}
	.st4{fill:#9FB700;}
	.st5{fill:#231F20;}
</style>
<g>
	<path class="st0" d="M71,79.8c-0.4-0.3-0.8-0.7-1-1.2L57.8,51.3c-0.5-1.1-0.9-2-1.2-2.7c-0.5-1-0.5-1.3-0.5-1.5
		c0-0.5,0.2-0.9,0.6-1.1v-1h-10v1c0.2,0.1,0.3,0.3,0.4,0.4c0.1,0.2,0.2,0.4,0.2,0.7c0,0.3-0.1,0.7-0.4,1.3c-0.3,0.6-0.6,1.3-1,2.2
		l-12,27.1c-0.2,0.4-0.5,1-0.9,1.7c-0.4,0.7-1.1,1-1.9,1.1v0.9h11.5v-0.9c-1.3,0-1.9-0.5-1.9-1.3c0-0.4,0.2-1.1,0.7-2.1
		c0.4-0.8,0.9-1.8,1.3-2.8c5.7,2.2,12.1,2.3,17.8,0.2c0.5,1,0.9,1.9,1.2,2.6c0.4,0.8,0.6,1.5,0.6,2c0,0.5-0.2,0.9-0.5,1.1
		c-0.3,0.1-0.5,0.2-0.8,0.3v0.9h11.7v-0.9C71.9,80.2,71.4,80,71,79.8z M45.1,68.9l6.4-14.2L58,69.1C53.8,70.5,49.3,70.5,45.1,68.9z"
		/>
	<path class="st1" d="M29.1,53.5c0-2.1,0.3-4.1,0.8-6.1l-6.5-2.9c-0.9,2.8-1.4,5.7-1.4,8.7c0,8.1,3.3,15.9,9.2,21.5l0.4-0.8l2.6-5.9
		C31.1,64.1,29.1,59,29.1,53.5z"/>
	<path class="st2" d="M80.2,44.6l-6.5,2.9c0.5,1.9,0.8,3.9,0.8,6c0,5.5-2,10.6-5.3,14.5l2.7,5.9l0.4,0.8c5.9-5.6,9.2-13.4,9.2-21.5
		C81.5,50.3,81.1,47.4,80.2,44.6z"/>
	<path class="st3" d="M24.9,41l6.4,2.9c3.4-7.2,10.4-12.3,18.6-13v-7.1C39.1,24.4,29.4,31.2,24.9,41z"/>
	<path class="st4" d="M78.8,41.1c-4.5-9.9-14.3-16.6-25.1-17.3v7.1c8.3,0.7,15.3,5.8,18.7,13L78.8,41.1z"/>
	<g>
		<path class="st5" d="M103.8,58.3h-6.1l-0.9,2.4h-4.4l6.2-15.6h4.4l6.2,15.6h-4.4L103.8,58.3z M102.7,55.4l-1.9-4.8l-1.9,4.8H102.7
			z"/>
		<path class="st5" d="M115.9,45.1h7.3c3.5,0,5.9,2.2,5.9,5.4c0,3.2-2.5,5.4-5.9,5.4h-3.4v4.9h-3.9V45.1z M122.9,52.3
			c1.3,0,2.3-0.7,2.3-1.8c0-1.1-1-1.8-2.3-1.8h-3v3.6H122.9z"/>
		<path class="st5" d="M136.2,45.1h7.3c3.5,0,5.9,2.2,5.9,5.4c0,3.2-2.5,5.4-5.9,5.4h-3.4v4.9h-3.9V45.1z M143.1,52.3
			c1.3,0,2.3-0.7,2.3-1.8c0-1.1-1-1.8-2.3-1.8h-3v3.6H143.1z"/>
		<path class="st5" d="M160.4,48.6h-4.7v-3.5h13.4v3.5h-4.8v12.2h-3.9V48.6z"/>
		<path class="st5" d="M184.6,58.3h-6.1l-0.9,2.4h-4.4l6.2-15.6h4.4l6.2,15.6h-4.4L184.6,58.3z M183.5,55.4l-1.9-4.8l-1.9,4.8H183.5
			z"/>
		<path class="st5" d="M196.7,45.1h3.9v15.6h-3.9V45.1z"/>
		<path class="st5" d="M208.9,45.1h3.9l6.8,9.2v-9.2h3.9v15.6h-3.9l-6.8-9.2v9.2h-3.9V45.1z"/>
		<path class="st5" d="M235.7,48.6V51h7.7v3.5h-7.7v2.8h8.4v3.5h-12.3V45.1h12.3v3.5H235.7z"/>
		<path class="st5" d="M261,60.7l-3.4-4.9H256v4.9h-3.9V45.1h7.3c3.5,0,5.9,2.2,5.9,5.4c0,2.4-1.4,4.2-3.6,5l3.7,5.3H261z M256,52.3
			h3c1.3,0,2.3-0.7,2.3-1.8c0-1.1-1-1.8-2.3-1.8h-3V52.3z"/>
	</g>
</g>
</svg>
