<?xml version="1.0" encoding="utf-8"?>
<!-- Generator: Adobe Illustrator 26.3.1, SVG Export Plug-In . SVG Version: 6.00 Build 0)  -->
<svg version="1.1" id="Layer_1" xmlns="http://www.w3.org/2000/svg" xmlns:xlink="http://www.w3.org/1999/xlink" x="0px" y="0px"
	 viewBox="0 0 299.4 153.6" style="enable-background:new 0 0 299.4 153.6;" xml:space="preserve">
<style type="text/css">
	.st0{fill:#969696;}
	.st1{fill:#0096D7;}
	.st2{fill:#6DB413;}
	.st3{fill:#FC9114;}
</style>
<rect x="261.4" y="198.9" class="st0" width="21.4" height="18.2"/>
<rect x="284.9" y="198.9" class="st1" width="21.4" height="18.2"/>
<rect x="308.4" y="198.9" class="st2" width="21.4" height="18.2"/>
<rect x="331.9" y="198.9" class="st3" width="21.4" height="18.2"/>
<path d="M176.9,92c-0.6-0.4-1.1-0.9-1.5-1.7l-17.4-38.9c-0.7-1.5-1.3-2.8-1.8-3.8c-0.7-1.4-0.7-1.9-0.7-2.2c0-0.7,0.3-1.2,0.9-1.6
	v-1.4h-14.3v1.4c0.2,0.2,0.4,0.4,0.6,0.6c0.2,0.2,0.3,0.6,0.3,1c0,0.4-0.2,1-0.6,1.8c-0.4,0.8-0.9,1.9-1.4,3.2l-17.1,38.7
	c-0.3,0.6-0.7,1.4-1.3,2.4c-0.6,1-1.5,1.5-2.8,1.6v1.3h16.4v-1.3c-1.8-0.1-2.7-0.7-2.7-1.9c0-0.6,0.3-1.5,1-3c0.6-1.2,1.2-2.5,1.9-4
	c8.1,3.2,17.2,3.3,25.4,0.3c0.7,1.4,1.3,2.7,1.7,3.7c0.6,1.2,0.8,2.1,0.8,2.9c0,0.8-0.3,1.3-0.8,1.6c-0.4,0.2-0.8,0.3-1.2,0.4v1.3
	h16.8V93C178.3,92.7,177.5,92.4,176.9,92z M140,76.4l9.1-20.3l9.3,20.6C152.5,78.8,146,78.7,140,76.4z"/>
<path d="M117.1,54.5c0-3,0.4-5.9,1.2-8.7l-9.2-4.1c-1.3,4-1.9,8.2-2,12.4c0,11.6,4.7,22.8,13.2,30.7l0.6-1.2l3.7-8.5
	C120,69.6,117.1,62.4,117.1,54.5z"/>
<path d="M190.1,41.8l-9.2,4.1c0.8,2.7,1.2,5.6,1.2,8.6c0,7.9-2.9,15.1-7.6,20.8l3.8,8.5l0.6,1.1c8.4-8,13.2-19.2,13.2-30.7
	C192.1,50,191.4,45.8,190.1,41.8z"/>
<path d="M111.1,36.7l9.2,4.1c4.8-10.2,14.8-17.5,26.6-18.5V12C131.5,12.9,117.5,22.6,111.1,36.7z"/>
<path d="M188.2,36.7C181.8,22.6,167.8,13,152.3,12v10.2c11.8,1,21.9,8.3,26.7,18.6L188.2,36.7z"/>
<g>
	<path d="M50.8,132.9h-8l-1.2,3.1h-5.8l8.1-20.6h5.8l8.1,20.6H52L50.8,132.9z M49.2,129l-2.5-6.3l-2.5,6.3H49.2z"/>
	<path d="M66.7,115.4h9.6c4.6,0,7.8,2.9,7.8,7.1c0,4.2-3.3,7.1-7.8,7.1h-4.4v6.4h-5.1V115.4z M75.8,124.9c1.8,0,3-1,3-2.4
		c0-1.4-1.3-2.4-3-2.4h-4v4.8H75.8z"/>
	<path d="M93.4,115.4h9.6c4.6,0,7.8,2.9,7.8,7.1c0,4.2-3.3,7.1-7.8,7.1h-4.4v6.4h-5.1V115.4z M102.5,124.9c1.8,0,3-1,3-2.4
		c0-1.4-1.3-2.4-3-2.4h-4v4.8H102.5z"/>
	<path d="M125.2,120H119v-4.6h17.6v4.6h-6.3v16h-5.1V120z"/>
	<path d="M157.1,132.9h-8l-1.2,3.1h-5.8l8.1-20.6h5.8l8.1,20.6h-5.8L157.1,132.9z M155.6,129l-2.5-6.3l-2.5,6.3H155.6z"/>
	<path d="M173,115.4h5.1V136H173V115.4z"/>
	<path d="M189,115.4h5.1l9,12.2v-12.2h5.1V136h-5.1l-9-12.2V136H189V115.4z"/>
	<path d="M224.3,120v3.2h10.1v4.6h-10.1v3.6h11.1v4.6h-16.2v-20.6h16.2v4.6H224.3z"/>
	<path d="M257.6,136l-4.5-6.4h-2v6.4h-5.1v-20.6h9.6c4.6,0,7.8,2.9,7.8,7.1c0,3.1-1.9,5.6-4.7,6.6l4.9,6.9H257.6z M251.1,124.9h4
		c1.8,0,3-1,3-2.4c0-1.4-1.3-2.4-3-2.4h-4V124.9z"/>
</g>
</svg>
