<?xml version="1.0" encoding="utf-8"?>
<!-- Generator: Adobe Illustrator 26.3.1, SVG Export Plug-In . SVG Version: 6.00 Build 0)  -->
<svg version="1.1" id="Layer_1" xmlns="http://www.w3.org/2000/svg" xmlns:xlink="http://www.w3.org/1999/xlink" x="0px" y="0px"
	 viewBox="0 0 299.4 153.6" style="enable-background:new 0 0 299.4 153.6;" xml:space="preserve">
<path d="M196.6,138.7c-1-0.6-1.8-1.5-2.3-2.7l-27.5-61.6c-1.1-2.4-2.1-4.4-2.8-6.1c-1.1-2.3-1.2-3-1.2-3.4c0-1.1,0.5-2,1.4-2.5v-2.2
	h-22.6v2.2c0.4,0.3,0.7,0.6,0.9,0.9c0.3,0.4,0.5,0.9,0.5,1.5c0,0.6-0.3,1.5-1,2.9c-0.6,1.3-1.4,3-2.3,5l-27.1,61.3
	c-0.4,1-1.1,2.2-2,3.8c-0.9,1.5-2.4,2.4-4.4,2.5v2h25.9v-2c-2.8-0.1-4.3-1.1-4.3-2.9c0-0.9,0.5-2.4,1.6-4.7c0.9-1.9,1.9-4,3-6.3
	c12.8,5,27.3,5.2,40.2,0.4c1.1,2.3,2,4.2,2.8,5.8c0.9,1.9,1.3,3.4,1.3,4.6c0,1.2-0.4,2-1.2,2.5c-0.6,0.3-1.2,0.5-1.8,0.6v2h26.6
	v-2.1C198.7,139.8,197.5,139.3,196.6,138.7z M138.1,114l14.4-32.1l14.8,32.7C157.9,117.8,147.6,117.7,138.1,114z"/>
<path d="M101.9,79.3c0-4.8,0.7-9.3,1.9-13.7l-14.6-6.5c-2,6.4-3.1,13-3.1,19.6c-0.1,18.3,7.5,36.1,20.8,48.7l1-1.8l5.9-13.4
	C106.4,103.2,101.9,91.8,101.9,79.3z"/>
<path d="M217.5,59.2l-14.6,6.5c1.2,4.3,1.9,8.9,1.9,13.6c0,12.5-4.5,24-12,32.9l6,13.4l1,1.8c13.3-12.6,20.9-30.3,20.8-48.7
	C220.5,72.1,219.5,65.6,217.5,59.2z"/>
<path d="M92.3,51l14.5,6.5c7.6-16.2,23.5-27.8,42.2-29.3V12C124.6,13.5,102.5,28.7,92.3,51z"/>
<path d="M214.4,51.1c-10.1-22.4-32.3-37.6-56.7-39.1v16.2c18.8,1.6,34.6,13.2,42.2,29.4L214.4,51.1z"/>
</svg>
