<?xml version="1.0" encoding="utf-8"?>
<!-- Generator: Adobe Illustrator 26.3.1, SVG Export Plug-In . SVG Version: 6.00 Build 0)  -->
<svg version="1.1" id="Layer_1" xmlns="http://www.w3.org/2000/svg" xmlns:xlink="http://www.w3.org/1999/xlink" x="0px" y="0px"
	 viewBox="0 0 86.4 86.4" style="enable-background:new 0 0 86.4 86.4;" xml:space="preserve">
<style type="text/css">
	.st0{fill:#229546;}
	.st1{fill:#939598;}
	.st2{fill:#FEC00F;}
	.st3{fill:#0280B7;}
	.st4{fill:#9EB83B;}
</style>
<path class="st0" d="M63.5,71.3c-0.4-0.3-0.8-0.7-1-1.2L50.3,42.9c-0.5-1.1-0.9-2-1.2-2.7c-0.5-1-0.5-1.3-0.5-1.5
	c0-0.5,0.2-0.9,0.6-1.1v-1h-10v1c0.2,0.1,0.3,0.3,0.4,0.4c0.1,0.2,0.2,0.4,0.2,0.7c0,0.3-0.1,0.7-0.4,1.3c-0.3,0.6-0.6,1.3-1,2.2
	l-12,27.1c-0.2,0.4-0.5,1-0.9,1.7c-0.4,0.7-1.1,1-1.9,1.1v0.9H35V72c-1.3,0-1.9-0.5-1.9-1.3c0-0.4,0.2-1.1,0.7-2.1
	c0.4-0.8,0.9-1.8,1.3-2.8c5.7,2.2,12.1,2.3,17.8,0.2c0.5,1,0.9,1.9,1.2,2.6c0.4,0.8,0.6,1.5,0.6,2c0,0.5-0.2,0.9-0.5,1.1
	C54,71.9,53.7,72,53.4,72v0.9h11.7V72C64.4,71.8,63.9,71.5,63.5,71.3z M37.6,60.4L44,46.2l6.5,14.4C46.4,62,41.8,62,37.6,60.4z"/>
<path class="st1" d="M21.6,45.1c0-2.1,0.3-4.1,0.8-6.1L16,36.1c-0.9,2.8-1.4,5.7-1.4,8.7c0,8.1,3.3,15.9,9.2,21.5l0.4-0.8l2.6-5.9
	C23.6,55.6,21.6,50.6,21.6,45.1z"/>
<path class="st2" d="M72.7,36.2l-6.5,2.9c0.5,1.9,0.8,3.9,0.8,6c0,5.5-2,10.6-5.3,14.5l2.7,5.9l0.4,0.8c5.9-5.6,9.2-13.4,9.2-21.5
	C74.1,41.9,73.6,39,72.7,36.2z"/>
<path class="st3" d="M17.4,32.6l6.4,2.9c3.4-7.2,10.4-12.3,18.6-13v-7.1C31.7,16,21.9,22.7,17.4,32.6z"/>
<path class="st4" d="M71.3,32.6C66.9,22.7,57.1,16,46.3,15.3v7.1c8.3,0.7,15.3,5.8,18.7,13L71.3,32.6z"/>
</svg>
