<?xml version="1.0" encoding="utf-8"?>
<!-- Generator: Adobe Illustrator 26.3.1, SVG Export Plug-In . SVG Version: 6.00 Build 0)  -->
<svg version="1.1" id="Layer_1" xmlns="http://www.w3.org/2000/svg" xmlns:xlink="http://www.w3.org/1999/xlink" x="0px" y="0px"
	 viewBox="0 0 253.3 153.6" style="enable-background:new 0 0 253.3 153.6;" xml:space="preserve">
<style type="text/css">
	.st0{fill:#969696;}
	.st1{fill:#1896D3;}
	.st2{fill:#6EB544;}
	.st3{fill:#F79320;}
	.st4{fill:#939598;}
	.st5{fill:#F79421;}
	.st6{fill:#1E95D3;}
	.st7{fill:#6FB544;}
</style>
<rect x="153.4" y="198.9" class="st0" width="21.4" height="18.2"/>
<rect x="176.9" y="198.9" class="st1" width="21.4" height="18.2"/>
<rect x="200.4" y="198.9" class="st2" width="21.4" height="18.2"/>
<rect x="223.9" y="198.9" class="st3" width="21.4" height="18.2"/>
<path d="M150.4,87.5c-0.4-0.3-0.8-0.7-1-1.2l-12.2-27.2c-0.5-1.1-0.9-2-1.2-2.7c-0.5-1-0.5-1.3-0.5-1.5c0-0.5,0.2-0.9,0.6-1.1v-1
	h-10v1c0.2,0.1,0.3,0.3,0.4,0.4c0.1,0.2,0.2,0.4,0.2,0.7s-0.1,0.7-0.4,1.3s-0.6,1.3-1,2.2l-12,27.1c-0.2,0.4-0.5,1-0.9,1.7
	s-1.1,1-1.9,1.1v0.9H122v-0.9c-1.3,0-1.9-0.5-1.9-1.3c0-0.4,0.2-1.1,0.7-2.1c0.4-0.8,0.9-1.8,1.3-2.8c5.7,2.2,12.1,2.3,17.8,0.2
	c0.5,1,0.9,1.9,1.2,2.6c0.4,0.8,0.6,1.5,0.6,2s-0.2,0.9-0.5,1.1c-0.3,0.1-0.5,0.2-0.8,0.3v0.9h11.7v-0.9
	C151.4,87.9,150.8,87.7,150.4,87.5z M124.6,76.6l6.4-14.2l6.5,14.4C133.3,78.2,128.8,78.2,124.6,76.6z"/>
<path class="st4" d="M108.6,61.3c0-2.1,0.3-4.1,0.8-6.1l-6.5-2.9c-0.9,2.8-1.4,5.7-1.4,8.7c0,8.1,3.3,15.9,9.2,21.5l0.4-0.8l2.6-5.9
	C110.6,71.8,108.6,66.8,108.6,61.3z"/>
<path class="st5" d="M159.7,52.4l-6.5,2.9c0.5,1.9,0.8,3.9,0.8,6c0,5.5-2,10.6-5.3,14.5l2.7,5.9l0.4,0.8c5.9-5.6,9.2-13.4,9.2-21.5
	C161,58.1,160.5,55.2,159.7,52.4z"/>
<path class="st6" d="M104.3,48.8l6.4,2.9c3.4-7.2,10.4-12.3,18.6-13v-7.1C118.6,32.2,108.8,38.9,104.3,48.8z"/>
<path class="st7" d="M158.3,48.8c-4.5-9.9-14.3-16.6-25.1-17.3v7.1c8.3,0.7,15.3,5.8,18.7,13L158.3,48.8z"/>
<g>
	<path d="M62.2,116.1h-5.6l-0.9,2.2h-4l5.7-14.4h4l5.7,14.4h-4L62.2,116.1z M61.1,113.4l-1.7-4.4l-1.7,4.4H61.1z"/>
	<path d="M73.3,103.9H80c3.2,0,5.5,2,5.5,4.9s-2.3,4.9-5.5,4.9h-3.1v4.5h-3.6V103.9z M79.7,110.5c1.2,0,2.1-0.7,2.1-1.7
		s-0.9-1.7-2.1-1.7h-2.8v3.4C76.9,110.5,79.7,110.5,79.7,110.5z"/>
	<path d="M92,103.9h6.7c3.2,0,5.5,2,5.5,4.9s-2.3,4.9-5.5,4.9h-3.1v4.5H92V103.9z M98.3,110.5c1.2,0,2.1-0.7,2.1-1.7
		s-0.9-1.7-2.1-1.7h-2.8v3.4C95.5,110.5,98.3,110.5,98.3,110.5z"/>
	<path d="M114.2,107.1h-4.4v-3.2h12.3v3.2h-4.4v11.2h-3.6L114.2,107.1L114.2,107.1z"/>
	<path d="M136.5,116.1h-5.6l-0.9,2.2h-4l5.7-14.4h4l5.7,14.4h-4L136.5,116.1z M135.5,113.4l-1.7-4.4l-1.7,4.4H135.5z"/>
	<path d="M147.7,103.9h3.6v14.4h-3.6V103.9z"/>
	<path d="M158.9,103.9h3.6l6.3,8.5v-8.5h3.6v14.4h-3.6l-6.3-8.5v8.5h-3.6V103.9z"/>
	<path d="M183.6,107.1v2.2h7.1v3.2h-7.1v2.5h7.8v3.2H180v-14.4h11.3v3.2h-7.7V107.1z"/>
	<path d="M206.9,118.3l-3.2-4.5h-1.4v4.5h-3.6v-14.4h6.7c3.2,0,5.5,2,5.5,4.9c0,2.2-1.3,3.9-3.3,4.6l3.4,4.9H206.9z M202.3,110.5
		h2.8c1.2,0,2.1-0.7,2.1-1.7s-0.9-1.7-2.1-1.7h-2.8V110.5z"/>
</g>
</svg>
