<?xml version="1.0" encoding="utf-8"?>
<!-- Generator: Adobe Illustrator 26.3.1, SVG Export Plug-In . SVG Version: 6.00 Build 0)  -->
<svg version="1.1" id="Layer_1" xmlns="http://www.w3.org/2000/svg" xmlns:xlink="http://www.w3.org/1999/xlink" x="0px" y="0px"
	 viewBox="0 0 93.6 93.6" style="enable-background:new 0 0 93.6 93.6;" xml:space="preserve">
<style type="text/css">
	.st0{fill:#229529;}
	.st1{fill:#969696;}
	.st2{fill:#FFC000;}
	.st3{fill:#0080B7;}
	.st4{fill:#9FB700;}
</style>
<path class="st0" d="M67.7,73.9c-0.4-0.3-0.8-0.7-1-1.2L54.5,45.5c-0.5-1.1-0.9-2-1.2-2.7c-0.5-1-0.5-1.3-0.5-1.5
	c0-0.5,0.2-0.9,0.6-1.1v-1h-10v1c0.2,0.1,0.3,0.3,0.4,0.4c0.1,0.2,0.2,0.4,0.2,0.7c0,0.3-0.1,0.7-0.4,1.3c-0.3,0.6-0.6,1.3-1,2.2
	l-12,27.1c-0.2,0.4-0.5,1-0.9,1.7c-0.4,0.7-1.1,1-1.9,1.1v0.9h11.5v-0.9c-1.3,0-1.9-0.5-1.9-1.3c0-0.4,0.2-1.1,0.7-2.1
	c0.4-0.8,0.9-1.8,1.3-2.8c5.7,2.2,12.1,2.3,17.8,0.2c0.5,1,0.9,1.9,1.2,2.6c0.4,0.8,0.6,1.5,0.6,2c0,0.5-0.2,0.9-0.5,1.1
	c-0.3,0.1-0.5,0.2-0.8,0.3v0.9h11.7v-0.9C68.6,74.4,68.1,74.1,67.7,73.9z M41.8,63l6.4-14.2l6.5,14.4C50.6,64.6,46,64.6,41.8,63z"/>
<path class="st1" d="M25.9,47.7c0-2.1,0.3-4.1,0.8-6.1l-6.5-2.9c-0.9,2.8-1.4,5.7-1.4,8.7c0,8.1,3.3,15.9,9.2,21.5l0.4-0.8l2.6-5.9
	C27.8,58.2,25.9,53.2,25.9,47.7z"/>
<path class="st2" d="M76.9,38.8l-6.5,2.9c0.5,1.9,0.8,3.9,0.8,6c0,5.5-2,10.6-5.3,14.5l2.7,5.9l0.4,0.8c5.9-5.6,9.2-13.4,9.2-21.5
	C78.3,44.5,77.8,41.6,76.9,38.8z"/>
<path class="st3" d="M21.6,35.2L28,38c3.4-7.2,10.4-12.3,18.6-13v-7.1C35.9,18.6,26.1,25.3,21.6,35.2z"/>
<path class="st4" d="M75.6,35.2c-4.5-9.9-14.3-16.6-25.1-17.3v7.1c8.3,0.7,15.3,5.8,18.7,13L75.6,35.2z"/>
</svg>
